# xmcd
#
# Track frame offsets: 
#        150
#        13343
#        27771
#        48387
#        66752
#        80513
#        97399
#        115258
#        128056
#        144316
#        157447
#
# Disc length: 2275 seconds
#
# Revision: 3
# Processed by: cddbd v1.5.2PL0 Copyright (c) Steve Scherf et al.
# Submitted via: ExactAudioCopyFreeDBPlugin 1.0
#
DISCID=9c08e10b
DTITLE=Patricia Vonne - Firebird
DYEAR=2007
DGENRE=Americana
TTITLE0=Missing Women
TTITLE1=Hot Rod Heart
TTITLE2=Battle Scars
TTITLE3=Torera
TTITLE4=Jett Rink
TTITLE5=The Dogs Dance
TTITLE6=La huerta de San Vicente
TTITLE7=Durch Cigarette
TTITLE8=Karolina
TTITLE9=Will We Ever Die
TTITLE10=Mujeres Desaparecidas
EXTD=YEAR: 2007
EXTT0=
EXTT1=
EXTT2=
EXTT3=
EXTT4=
EXTT5=
EXTT6=
EXTT7=
EXTT8=
EXTT9=
EXTT10=
PLAYORDER=
